<?xml version="1.0" encoding="UTF-8" standalone="no"?>
<!DOCTYPE svg PUBLIC "-//W3C//DTD SVG 1.1//EN" "http://www.w3.org/Graphics/SVG/1.1/DTD/svg11.dtd">
<!-- Created with Inkscape (http://www.inkscape.org/) -->
<svg
   xmlns:svg="http://www.w3.org/2000/svg"
   xmlns:xlink="http://www.w3.org/1999/xlink"
   xmlns="http://www.w3.org/2000/svg"
   version="1.1"
   width="68.03125"
   height="42.52"
   id="svg2727"
   xml:space="preserve"><defs
     id="defs2730" /><g
     transform="matrix(1.25,0,0,-1.25,-679.03606,1508.7701)"
     id="g2736"><path
       d="M 589.09785,1180.3331 C 589.49085,1180.8231 589.82485,1181.3941 590.09285,1182.0451 C 590.70185,1183.5221 590.95885,1185.3531 590.86185,1187.5031 L 586.62585,1187.1751 C 586.67685,1185.2531 586.24385,1183.5261 585.06885,1183.3101 C 582.90785,1182.9141 581.44185,1186.7361 580.84385,1190.1281 C 580.24285,1193.5311 580.50685,1197.3611 582.50685,1197.7281 C 583.63885,1197.9361 584.67385,1196.8691 585.27385,1194.8751 L 585.31485,1194.7401 L 589.46385,1195.6791 L 589.40185,1195.9111 C 588.79085,1198.2001 587.76885,1200.0301 586.44485,1201.2131 C 591.85485,1198.5261 595.29285,1194.5041 595.29285,1190.0081 C 595.29285,1186.3001 592.95385,1182.9141 589.09785,1180.3331 M 565.25185,1175.6821 L 566.33285,1179.8491 L 574.54985,1179.8491 L 575.63085,1175.6821 C 573.95685,1175.4721 572.22085,1175.3611 570.44085,1175.3611 C 568.66085,1175.3611 566.92585,1175.4721 565.25185,1175.6821 M 545.58885,1190.0081 C 545.58885,1193.1151 547.23185,1195.9961 550.03185,1198.3661 L 550.03185,1181.6501 C 547.23185,1184.0201 545.58885,1186.9011 545.58885,1190.0081 M 570.44085,1195.6771 L 573.38385,1184.3391 L 567.49785,1184.3391 L 570.44085,1195.6771 z M 559.19985,1195.6781 L 568.11285,1204.5911 C 568.11385,1204.5911 568.11485,1204.5911 568.11585,1204.5911 L 562.90185,1184.5031 L 559.19985,1195.6781 z M 555.64685,1192.1251 L 560.82385,1176.4981 C 558.52685,1177.0671 556.40685,1177.8331 554.52185,1178.7611 L 554.52185,1191.0001 L 555.64685,1192.1251 z M 554.52185,1201.2551 C 556.35685,1202.1581 558.41685,1202.9091 560.64385,1203.4721 L 554.52185,1197.3501 L 554.52185,1201.2551 z M 576.86285,1197.7381 C 576.22985,1195.5991 576.12785,1192.9311 576.55885,1189.9801 L 572.76685,1204.5911 C 576.37285,1204.3941 579.75685,1203.7431 582.75085,1202.7351 C 582.38785,1202.7431 582.02185,1202.7161 581.65585,1202.6491 C 579.37885,1202.2311 577.67685,1200.4871 576.86285,1197.7381 M 578.03885,1184.2791 C 579.70185,1180.1531 582.32585,1177.9611 585.39685,1178.3101 C 583.76185,1177.5831 581.97085,1176.9721 580.05785,1176.4981 L 578.03885,1184.2791 z M 570.44085,1207.0161 C 555.41185,1207.0161 543.22885,1199.4011 543.22885,1190.0081 C 543.22885,1180.6151 555.41185,1173.0001 570.44085,1173.0001 C 585.46985,1173.0001 597.65385,1180.6151 597.65385,1190.0081 C 597.65385,1199.4011 585.46985,1207.0161 570.44085,1207.0161"
       id="path2916"
       style="fill:#ed1c24;fill-opacity:1;fill-rule:nonzero;stroke:none" /></g></svg>